# xmcd CD database file
#
# Track frame offsets:
#	150
#	14588
#	25607
#	41853
#	59890
#	72586
#	85360
#	94244
#	109225
#	121755
#	135634
#	146745
#	159038
#	170126
#	184617
#	200630
#	212031
#	224954
#	235136
#	255565
#
# Disc length: 3557 seconds
#
# Revision: 1
# Processed by: cddbd v1.5.1PL2 Copyright (c) Steve Scherf et al.
# Submitted via: cdripper 1,0,33,916
#
DISCID=380de314
DTITLE=Elvis Presley - Elvis Inspirational
DYEAR=2006
DGENRE=Gospel
TTITLE0=If I Can Dream
TTITLE1=Crying In The Chapel
TTITLE2=Amazing Grace
TTITLE3=Danny Boy
TTITLE4=In The Ghetto
TTITLE5=Mama Liked The Roses
TTITLE6=An Evening Prayer
TTITLE7=Put Your Hand In The Hand
TTITLE8=You'll Never Walk Alone
TTITLE9=How Great Thou Art
TTITLE10=I'll Take You Home Again Kathleen
TTITLE11=He Is My Everything
TTITLE12=A Thing Called Love
TTITLE13=And The Grass Won't Pay No Mind
TTITLE14=If That Isn't Love
TTITLE15=Help Me
TTITLE16=Only Believe
TTITLE17=Wonderful World
TTITLE18=Bridge Over Troubled Water
TTITLE19=The Impossible Dream
EXTD=YEAR: 2006
EXTT0=
EXTT1=
EXTT2=
EXTT3=
EXTT4=
EXTT5=
EXTT6=
EXTT7=
EXTT8=
EXTT9=
EXTT10=
EXTT11=
EXTT12=
EXTT13=
EXTT14=
EXTT15=
EXTT16=
EXTT17=
EXTT18=
EXTT19=
PLAYORDER=
